# WaveFront *.obj file (generated by Autodesk ATF)

mtllib Piping GL-1N -  Location AWP-1N.mtl

g Solid1

v -30330.668945 18085.866699 -69.498491
v -30330.668945 18085.866699 69.498491
v -30324.438477 17996.739502 -175.976353
v -30324.438477 17996.739502 175.976353
v -30314.890137 17860.186768 -200.112934
v -30314.890137 17860.186768 200.112934
v -30306.491699 17740.104980 -130.614443
v -30306.491699 17740.104980 130.614443
v -30303.176270 17692.681885 0.000000
v -2398.876648 20039.047852 -69.498491
v -2398.876648 20039.047852 69.498491
v -2392.644196 19949.920654 -175.976353
v -2392.644196 19949.920654 175.976353
v -2383.095551 19813.367920 -200.112934
v -2383.095551 19813.367920 200.112934
v -2374.698639 19693.287354 -130.614443
v -2374.698639 19693.287354 130.614443
v -2371.382446 19645.863037 0.000000
v -1897.973785 19623.419189 0.000000
v -1890.186005 19670.316162 -130.614443
v -1890.186005 19670.316162 130.614443
v -1870.466461 19789.064941 -200.112934
v -1870.466461 19789.064941 200.112934
v -1848.042145 19924.101562 -175.976353
v -1848.042145 19924.101562 175.976353
v -1833.405762 20012.239990 -69.498491
v -1833.405762 20012.239990 69.498491
v -1442.720337 19491.647949 0.000000
v -1424.254303 19535.455322 -130.614443
v -1424.254303 19535.455322 130.614443
v -1377.496490 19646.376953 -200.112934
v -1377.496490 19646.376953 200.112934
v -1324.325409 19772.513428 -175.976353
v -1324.325409 19772.513428 175.976353
v -1289.620514 19854.843750 -69.498491
v -1289.620514 19854.843750 69.498491
v -1030.514984 19257.755127 0.000000
v -1002.380371 19296.075439 -130.614443
v -1002.380371 19296.075439 130.614443
v -931.141052 19393.106689 -200.112934
v -931.141052 19393.106689 200.112934
v -850.130615 19503.446045 -175.976353
v -850.130615 19503.446045 175.976353
v -797.254868 19575.466309 -69.498491
v -797.254868 19575.466309 69.498491
v -683.897018 18934.527588 0.000000
v -647.632294 18965.267334 -130.614443
v -647.632294 18965.267334 130.614443
v -555.806732 19043.101807 -200.112934
v -555.806732 19043.101807 200.112934
v -451.386566 19131.611328 -175.976353
v -451.386566 19131.611328 175.976353
v -421.819344 18539.642334 0.000000
v -383.231163 19189.382324 -69.498491
v -383.231163 19189.382324 69.498491
v -379.407425 18561.119385 -130.614443
v -379.407425 18561.119385 130.614443
v -272.016678 18615.500488 -200.112934
v -272.016678 18615.500488 200.112934
v -258.612328 18094.689941 0.000000
v -212.372284 18105.729980 -130.614443
v -212.372284 18105.729980 130.614443
v -203.199997 0.000000 0.000000
v -203.199997 17624.000244 0.000000
v -155.660229 0.000000 -130.614443
v -155.660229 0.000000 130.614443
v -155.660229 17624.000244 -130.614443
v -155.660229 17624.000244 130.614443
v -149.896402 18677.341309 -175.976353
v -149.896402 18677.341309 175.976353
v -95.288391 18133.685303 -200.112934
v -95.288391 18133.685303 200.112934
v -70.188055 18717.705078 -69.498491
v -70.188055 18717.705078 69.498491
v -35.285311 0.000000 -200.112934
v -35.285311 0.000000 200.112934
v -35.285311 17624.000244 -200.112934
v -35.285311 17624.000244 200.112934
v 37.854505 18165.474854 -175.976353
v 37.854505 18165.474854 175.976353
v 101.599998 0.000000 -175.976353
v 101.599998 0.000000 175.976353
v 101.599998 17624.000244 -175.976353
v 101.599998 17624.000244 175.976353
v 124.757357 18186.223145 -69.498491
v 124.757357 18186.223145 69.498491
v 190.945549 0.000000 -69.498491
v 190.945549 0.000000 69.498491
v 190.945549 17624.000244 -69.498491
v 190.945549 17624.000244 69.498491
vt -2800.000000 0.000000 0.000000
vt -2800.000000 -14.186035 0.000000
vt -2800.000000 -28.372070 0.000000
vt -2800.000000 -42.558109 0.000000
vt -2800.000000 -56.744141 0.000000
vt -2800.000000 56.744141 0.000000
vt -2800.000000 42.558109 0.000000
vt -2800.000000 28.372070 0.000000
vt -2800.000000 14.186035 0.000000
vt -0.000000 0.000000 0.000000
vt -0.000000 14.186035 0.000000
vt -0.000000 28.372070 0.000000
vt -0.000000 42.558109 0.000000
vt -0.000000 -70.930183 0.000000
vt -0.000000 -56.744141 0.000000
vt -0.000000 -42.558109 0.000000
vt -0.000000 -28.372070 0.000000
vt -0.000000 -14.186035 0.000000
vt -0.000000 56.744148 0.000000
vt -0.000000 56.744148 0.000000
vt -2800.000000 -70.930183 0.000000
vt -2800.000000 -70.930183 0.000000
vt 63.837162 399.193115 0.000000
vt 49.651127 399.193115 0.000000
vt 35.465092 399.193115 0.000000
vt 21.279055 399.193115 0.000000
vt 7.093018 399.193115 0.000000
vt -7.093018 399.193115 0.000000
vt -21.279055 399.193115 0.000000
vt -35.465092 399.193115 0.000000
vt -49.651127 399.193115 0.000000
vt -63.837162 0.000000 0.000000
vt -49.651127 0.000000 0.000000
vt -35.465092 0.000000 0.000000
vt -21.279055 0.000000 0.000000
vt -7.093018 0.000000 0.000000
vt 7.093018 0.000000 0.000000
vt 21.279055 0.000000 0.000000
vt 35.465092 0.000000 0.000000
vt 49.651127 0.000000 0.000000
vt -63.837162 342.165527 0.000000
vt -63.837162 285.137939 0.000000
vt -63.837162 228.110352 0.000000
vt -63.837162 171.082764 0.000000
vt -63.837162 114.055176 0.000000
vt -63.837162 57.027588 0.000000
vt -49.651127 342.165527 0.000000
vt -35.465092 342.165527 0.000000
vt -21.279055 342.165527 0.000000
vt -7.093018 342.165527 0.000000
vt 7.093018 342.165527 0.000000
vt 21.279055 342.165527 0.000000
vt 35.465092 342.165527 0.000000
vt 49.651127 342.165527 0.000000
vt 49.651127 57.027588 0.000000
vt 35.465092 57.027588 0.000000
vt 21.279055 57.027588 0.000000
vt 7.093018 57.027588 0.000000
vt -7.093018 57.027588 0.000000
vt -21.279055 57.027588 0.000000
vt -35.465092 57.027588 0.000000
vt -49.651127 57.027588 0.000000
vt -49.651127 285.137939 0.000000
vt -35.465092 285.137939 0.000000
vt -21.279055 285.137939 0.000000
vt -7.093018 285.137939 0.000000
vt 7.093018 285.137939 0.000000
vt 21.279055 285.137939 0.000000
vt 35.465092 285.137939 0.000000
vt 49.651127 285.137939 0.000000
vt -49.651127 228.110352 0.000000
vt -35.465092 228.110352 0.000000
vt -21.279055 228.110352 0.000000
vt -7.093018 228.110352 0.000000
vt 7.093018 228.110352 0.000000
vt 21.279055 228.110352 0.000000
vt 35.465092 228.110352 0.000000
vt 49.651127 228.110352 0.000000
vt -49.651127 171.082764 0.000000
vt -35.465092 171.082764 0.000000
vt -21.279055 171.082764 0.000000
vt -7.093018 171.082764 0.000000
vt 7.093018 171.082764 0.000000
vt 21.279055 171.082764 0.000000
vt 35.465092 171.082764 0.000000
vt 49.651127 171.082764 0.000000
vt -49.651127 114.055176 0.000000
vt -35.465092 114.055176 0.000000
vt -21.279055 114.055176 0.000000
vt -7.093018 114.055176 0.000000
vt 7.093018 114.055176 0.000000
vt 21.279055 114.055176 0.000000
vt 35.465092 114.055176 0.000000
vt 49.651127 114.055176 0.000000
vt 63.837162 342.165527 0.000000
vt -63.837162 399.193115 0.000000
vt -63.837162 399.193115 0.000000
vt 63.837162 342.165527 0.000000
vt -78.023201 57.027588 0.000000
vt 63.837162 0.000000 0.000000
vt -78.023201 342.165527 0.000000
vt 63.837162 285.137939 0.000000
vt -78.023201 285.137939 0.000000
vt 63.837162 228.110352 0.000000
vt -78.023201 228.110352 0.000000
vt 63.837162 171.082764 0.000000
vt -78.023201 171.082764 0.000000
vt 63.837162 114.055176 0.000000
vt -78.023201 114.055176 0.000000
vt 63.837162 57.027588 0.000000
vt -1762.400024 0.000000 0.000000
vt -1762.400024 -14.186035 0.000000
vt -1762.400024 -28.372070 0.000000
vt -1762.400024 -42.558109 0.000000
vt -1762.400024 -56.744141 0.000000
vt -1762.400024 56.744141 0.000000
vt -1762.400024 42.558109 0.000000
vt -1762.400024 28.372070 0.000000
vt -1762.400024 14.186035 0.000000
vt -0.000000 0.000000 0.000000
vt -0.000000 14.186035 0.000000
vt -0.000000 28.372070 0.000000
vt -0.000000 42.558109 0.000000
vt -0.000000 -70.930183 0.000000
vt -0.000000 -56.744141 0.000000
vt -0.000000 -42.558109 0.000000
vt -0.000000 -28.372070 0.000000
vt -0.000000 -14.186035 0.000000
vt -0.000000 56.744148 0.000000
vt -0.000000 56.744148 0.000000
vt -1762.400024 -70.930183 0.000000
vt -1762.400024 -70.930183 0.000000
vt 0.000000 -20.320000 0.000000
vt 13.061444 -15.566023 0.000000
vt 20.011293 -3.528531 0.000000
vt 17.597635 10.160000 0.000000
vt 6.949849 19.094555 0.000000
vt -6.949849 19.094555 0.000000
vt -17.597635 10.160000 0.000000
vt -20.011293 -3.528531 0.000000
vt -13.061444 -15.566023 0.000000
vt -0.000000 -20.320000 0.000000
vt 13.061444 -15.566023 0.000000
vt 20.011293 -3.528531 0.000000
vt 17.597635 10.160000 0.000000
vt 6.949849 19.094555 0.000000
vt -6.949849 19.094555 0.000000
vt -17.597635 10.160000 0.000000
vt -20.011293 -3.528531 0.000000
vt -13.061444 -15.566023 0.000000
vn 0.006976 -0.099756 0.000000
vn 0.005344 -0.076418 -0.064279
vn 0.001211 -0.017323 -0.098481
vn -0.003488 0.049878 -0.086603
vn -0.006555 0.093740 -0.034202
vn -0.006555 0.093740 0.034202
vn -0.003488 0.049878 0.086603
vn 0.001211 -0.017323 0.098481
vn 0.005344 -0.076418 0.064279
vn 0.006976 -0.099756 0.000000
vn 0.005344 -0.076418 0.064279
vn 0.001211 -0.017323 0.098481
vn -0.003488 0.049878 0.086603
vn -0.006555 0.093740 0.034202
vn -0.006555 0.093740 -0.034202
vn -0.003488 0.049878 -0.086603
vn 0.001211 -0.017323 -0.098481
vn 0.005344 -0.076418 -0.064279
vn -0.006555 0.093740 0.034202
vn -0.006555 0.093740 0.034202
vn -0.006555 0.093740 0.034202
vn -0.006555 0.093740 0.034202
vn 0.006976 -0.099756 0.000000
vn 0.005344 -0.076418 -0.064279
vn 0.001211 -0.017323 -0.098481
vn -0.003488 0.049878 -0.086603
vn -0.006555 0.093740 -0.034202
vn -0.006555 0.093740 0.034202
vn -0.003488 0.049878 0.086603
vn 0.001211 -0.017323 0.098481
vn 0.005344 -0.076418 0.064279
vn -0.100000 0.000000 0.000000
vn -0.076604 0.000000 0.064279
vn -0.017365 0.000000 0.098481
vn 0.050000 0.000000 0.086603
vn 0.093969 0.000000 0.034202
vn 0.093969 0.000000 -0.034202
vn 0.050000 0.000000 -0.086603
vn -0.017365 0.000000 -0.098481
vn -0.076604 0.000000 -0.064279
vn -0.016382 -0.098649 0.000000
vn -0.038843 -0.092148 0.000000
vn -0.059181 -0.080608 0.000000
vn -0.076283 -0.064660 0.000000
vn -0.089214 -0.045177 0.000000
vn -0.097266 -0.023223 0.000000
vn -0.012549 -0.075570 0.064279
vn -0.002845 -0.017130 0.098481
vn 0.008191 0.049325 0.086603
vn 0.015394 0.092700 0.034202
vn 0.015394 0.092700 -0.034202
vn 0.008191 0.049325 -0.086603
vn -0.002845 -0.017130 -0.098481
vn -0.012549 -0.075570 -0.064279
vn -0.074510 -0.017790 -0.064279
vn -0.016890 -0.004033 -0.098481
vn 0.048633 0.011612 -0.086603
vn 0.091400 0.021823 -0.034202
vn 0.091400 0.021823 0.034202
vn 0.048633 0.011612 0.086603
vn -0.016890 -0.004033 0.098481
vn -0.074510 -0.017790 0.064279
vn -0.029756 -0.070589 0.064279
vn -0.006745 -0.016001 0.098481
vn 0.019422 0.046074 0.086603
vn 0.036501 0.086590 0.034202
vn 0.036501 0.086590 -0.034202
vn 0.019422 0.046074 -0.086603
vn -0.006745 -0.016001 -0.098481
vn -0.029756 -0.070589 -0.064279
vn -0.045335 -0.061749 0.064279
vn -0.010277 -0.013997 0.098481
vn 0.029591 0.040304 0.086603
vn 0.055612 0.075746 0.034202
vn 0.055612 0.075746 -0.034202
vn 0.029591 0.040304 -0.086603
vn -0.010277 -0.013997 -0.098481
vn -0.045335 -0.061749 -0.064279
vn -0.058436 -0.049532 0.064279
vn -0.013246 -0.011228 0.098481
vn 0.038141 0.032330 0.086603
vn 0.071683 0.060760 0.034202
vn 0.071683 0.060760 -0.034202
vn 0.038141 0.032330 -0.086603
vn -0.013246 -0.011228 -0.098481
vn -0.058436 -0.049532 -0.064279
vn -0.068342 -0.034607 0.064279
vn -0.015492 -0.007845 0.098481
vn 0.044607 0.022588 0.086603
vn 0.083833 0.042452 0.034202
vn 0.083833 0.042452 -0.034202
vn 0.044607 0.022588 -0.086603
vn -0.015492 -0.007845 -0.098481
vn -0.068342 -0.034607 -0.064279
vn -0.016382 -0.098649 0.000000
vn 0.006976 -0.099756 0.000000
vn 0.006976 -0.099756 0.000000
vn -0.016382 -0.098649 0.000000
vn -0.074510 -0.017790 -0.064279
vn -0.100000 0.000000 0.000000
vn -0.012549 -0.075570 -0.064279
vn -0.038843 -0.092148 0.000000
vn -0.029756 -0.070589 -0.064279
vn -0.059181 -0.080608 0.000000
vn -0.045335 -0.061749 -0.064279
vn -0.076283 -0.064660 0.000000
vn -0.058436 -0.049532 -0.064279
vn -0.089214 -0.045177 0.000000
vn -0.068342 -0.034607 -0.064279
vn -0.097266 -0.023223 0.000000
vn -0.100000 0.000000 0.000000
vn -0.076604 0.000000 -0.064279
vn -0.017365 0.000000 -0.098481
vn 0.050000 0.000000 -0.086603
vn 0.093969 0.000000 -0.034202
vn 0.093969 0.000000 0.034202
vn 0.050000 0.000000 0.086603
vn -0.017365 0.000000 0.098481
vn -0.076604 0.000000 0.064279
vn -0.100000 0.000000 0.000000
vn -0.076604 0.000000 0.064279
vn -0.017365 0.000000 0.098481
vn 0.050000 0.000000 0.086603
vn 0.093969 0.000000 0.034202
vn 0.093969 0.000000 -0.034202
vn 0.050000 0.000000 -0.086603
vn -0.017365 0.000000 -0.098481
vn -0.076604 0.000000 -0.064279
vn 0.093969 0.000000 0.034202
vn 0.093969 0.000000 0.034202
vn 0.093969 0.000000 0.034202
vn 0.093969 0.000000 0.034202
vn -0.099756 -0.006976 0.000000
vn -0.099756 -0.006976 0.000000
vn -0.099756 -0.006976 0.000000
vn -0.099756 -0.006976 0.000000
vn -0.099756 -0.006976 0.000000
vn -0.099756 -0.006976 0.000000
vn -0.099756 -0.006976 0.000000
vn -0.099756 -0.006976 0.000000
vn -0.099756 -0.006976 0.000000
vn 0.000000 -0.100000 0.000000
vn 0.000000 -0.100000 0.000000
vn 0.000000 -0.100000 0.000000
vn 0.000000 -0.100000 0.000000
vn 0.000000 -0.100000 0.000000
vn 0.000000 -0.100000 0.000000
vn 0.000000 -0.100000 0.000000
vn 0.000000 -0.100000 0.000000
vn 0.000000 -0.100000 0.000000
usemtl 191,191,191
f 7/2/2 18/10/10 9/1/1
f 9/1/1 18/10/10 17/11/11
f 9/1/1 17/11/11 8/9/9
f 8/9/9 17/11/11 15/12/12
f 8/9/9 15/12/12 6/8/8
f 6/8/8 15/12/12 13/13/13
f 6/8/8 13/13/13 4/7/7
f 4/7/7 13/13/13 11/19/19
f 4/7/7 11/20/20 2/6/6
f 2/21/21 11/14/14 10/15/15
f 2/22/22 10/15/15 1/5/5
f 1/5/5 10/15/15 12/16/16
f 1/5/5 12/16/16 3/4/4
f 3/4/4 12/16/16 14/17/17
f 3/4/4 14/17/17 5/3/3
f 5/3/3 14/17/17 16/18/18
f 5/3/3 16/18/18 7/2/2
f 7/2/2 16/18/18 18/10/10
f 16/24/24 19/95/95 18/23/23
f 18/96/96 19/41/41 21/47/47
f 18/97/97 21/47/47 17/31/31
f 17/31/31 21/47/47 23/48/48
f 17/31/31 23/48/48 15/30/30
f 15/30/30 23/48/48 25/49/49
f 15/30/30 25/49/49 13/29/29
f 13/29/29 25/49/49 27/50/50
f 13/29/29 27/50/50 11/28/28
f 11/28/28 27/50/50 26/51/51
f 11/28/28 26/51/51 10/27/27
f 10/27/27 26/51/51 24/52/52
f 10/27/27 24/52/52 12/26/26
f 12/26/26 24/52/52 22/53/53
f 12/26/26 22/53/53 14/25/25
f 14/25/25 22/53/53 20/54/54
f 14/25/25 20/54/54 16/24/24
f 16/24/24 20/54/54 19/98/98
f 68/33/33 60/46/46 64/32/32
f 64/32/32 60/46/46 61/99/99
f 64/100/100 61/55/55 67/40/40
f 67/40/40 61/55/55 71/56/56
f 67/40/40 71/56/56 77/39/39
f 77/39/39 71/56/56 79/57/57
f 77/39/39 79/57/57 83/38/38
f 83/38/38 79/57/57 85/58/58
f 83/38/38 85/58/58 89/37/37
f 89/37/37 85/58/58 86/59/59
f 89/37/37 86/59/59 90/36/36
f 90/36/36 86/59/59 80/60/60
f 90/36/36 80/60/60 84/35/35
f 84/35/35 80/60/60 72/61/61
f 84/35/35 72/61/61 78/34/34
f 78/34/34 72/61/61 62/62/62
f 78/34/34 62/62/62 68/33/33
f 68/33/33 62/62/62 60/46/46
f 19/41/41 28/42/42 30/63/63
f 30/63/63 28/42/42 39/71/71
f 30/63/63 39/71/71 41/72/72
f 41/72/72 39/71/71 50/80/80
f 41/72/72 50/80/80 52/81/81
f 52/81/81 50/80/80 70/89/89
f 52/81/81 70/89/89 74/90/90
f 74/90/90 70/89/89 86/59/59
f 74/90/90 86/59/59 85/58/58
f 28/42/42 37/43/43 39/71/71
f 39/71/71 37/43/43 48/79/79
f 39/71/71 48/79/79 50/80/80
f 50/80/80 48/79/79 59/88/88
f 50/80/80 59/88/88 70/89/89
f 70/89/89 59/88/88 80/60/60
f 70/89/89 80/60/60 86/59/59
f 19/41/41 20/101/101 28/42/42
f 28/102/102 20/54/54 29/70/70
f 28/42/42 29/103/103 37/43/43
f 37/104/104 29/70/70 38/78/78
f 37/43/43 38/105/105 46/44/44
f 46/106/106 38/78/78 47/86/86
f 46/44/44 47/107/107 53/45/45
f 53/108/108 47/86/86 56/94/94
f 53/45/45 56/109/109 60/46/46
f 60/110/110 56/94/94 61/55/55
f 37/43/43 46/44/44 48/79/79
f 48/79/79 46/44/44 57/87/87
f 48/79/79 57/87/87 59/88/88
f 59/88/88 57/87/87 72/61/61
f 59/88/88 72/61/61 80/60/60
f 46/44/44 53/45/45 57/87/87
f 57/87/87 53/45/45 62/62/62
f 57/87/87 62/62/62 72/61/61
f 53/45/45 60/46/46 62/62/62
f 21/47/47 19/41/41 30/63/63
f 23/48/48 21/47/47 32/64/64
f 32/64/64 21/47/47 30/63/63
f 32/64/64 30/63/63 41/72/72
f 25/49/49 23/48/48 34/65/65
f 34/65/65 23/48/48 32/64/64
f 34/65/65 32/64/64 43/73/73
f 43/73/73 32/64/64 41/72/72
f 43/73/73 41/72/72 52/81/81
f 27/50/50 25/49/49 36/66/66
f 36/66/66 25/49/49 34/65/65
f 36/66/66 34/65/65 45/74/74
f 45/74/74 34/65/65 43/73/73
f 45/74/74 43/73/73 55/82/82
f 55/82/82 43/73/73 52/81/81
f 55/82/82 52/81/81 74/90/90
f 26/51/51 27/50/50 35/67/67
f 35/67/67 27/50/50 36/66/66
f 35/67/67 36/66/66 44/75/75
f 44/75/75 36/66/66 45/74/74
f 44/75/75 45/74/74 54/83/83
f 54/83/83 45/74/74 55/82/82
f 54/83/83 55/82/82 73/91/91
f 73/91/91 55/82/82 74/90/90
f 73/91/91 74/90/90 85/58/58
f 24/52/52 26/51/51 33/68/68
f 33/68/68 26/51/51 35/67/67
f 33/68/68 35/67/67 42/76/76
f 42/76/76 35/67/67 44/75/75
f 42/76/76 44/75/75 51/84/84
f 51/84/84 44/75/75 54/83/83
f 51/84/84 54/83/83 69/92/92
f 69/92/92 54/83/83 73/91/91
f 69/92/92 73/91/91 79/57/57
f 79/57/57 73/91/91 85/58/58
f 29/70/70 20/54/54 22/53/53
f 22/53/53 24/52/52 31/69/69
f 31/69/69 24/52/52 33/68/68
f 31/69/69 33/68/68 40/77/77
f 40/77/77 33/68/68 42/76/76
f 40/77/77 42/76/76 49/85/85
f 49/85/85 42/76/76 51/84/84
f 49/85/85 51/84/84 58/93/93
f 58/93/93 51/84/84 69/92/92
f 58/93/93 69/92/92 71/56/56
f 71/56/56 69/92/92 79/57/57
f 58/93/93 71/56/56 61/55/55
f 58/93/93 61/55/55 56/94/94
f 38/78/78 29/70/70 31/69/69
f 31/69/69 29/70/70 22/53/53
f 38/78/78 31/69/69 40/77/77
f 47/86/86 38/78/78 40/77/77
f 47/86/86 40/77/77 49/85/85
f 56/94/94 47/86/86 49/85/85
f 56/94/94 49/85/85 58/93/93
f 67/112/112 63/120/120 64/111/111
f 64/111/111 63/120/120 66/121/121
f 64/111/111 66/121/121 68/119/119
f 68/119/119 66/121/121 76/122/122
f 68/119/119 76/122/122 78/118/118
f 78/118/118 76/122/122 82/123/123
f 78/118/118 82/123/123 84/117/117
f 84/117/117 82/123/123 88/129/129
f 84/117/117 88/130/130 90/116/116
f 90/131/131 88/124/124 87/125/125
f 90/132/132 87/125/125 89/115/115
f 89/115/115 87/125/125 81/126/126
f 89/115/115 81/126/126 83/114/114
f 83/114/114 81/126/126 75/127/127
f 83/114/114 75/127/127 77/113/113
f 77/113/113 75/127/127 65/128/128
f 77/113/113 65/128/128 67/112/112
f 67/112/112 65/128/128 63/120/120
f 9/133/133 8/134/134 7/141/141
f 7/141/141 8/134/134 5/140/140
f 5/140/140 8/134/134 6/135/135
f 5/140/140 6/135/135 3/139/139
f 3/139/139 6/135/135 4/136/136
f 3/139/139 4/136/136 1/138/138
f 1/138/138 4/136/136 2/137/137
f 63/142/142 65/143/143 66/150/150
f 66/150/150 65/143/143 76/149/149
f 76/149/149 65/143/143 75/144/144
f 76/149/149 75/144/144 82/148/148
f 82/148/148 75/144/144 81/145/145
f 82/148/148 81/145/145 88/147/147
f 88/147/147 81/145/145 87/146/146

# 90 vertices
# 150 texture params
# 150 normals
# 176 facets

# 1 groups
